<?xml version="1.0" encoding="utf-8"?>
<!-- Svg Vector Icons : http://www.onlinewebfonts.com/icon -->
<!DOCTYPE svg PUBLIC "-//W3C//DTD SVG 1.1//EN" "http://www.w3.org/Graphics/SVG/1.1/DTD/svg11.dtd">
<svg version="1.1" xmlns="http://www.w3.org/2000/svg" xmlns:xlink="http://www.w3.org/1999/xlink" x="0px" y="0px" viewBox="0 0 1000 1000" enable-background="new 0 0 1000 1000" xml:space="preserve">
<metadata> Svg Vector Icons : http://www.onlinewebfonts.com/icon </metadata>
<g><g transform="translate(0.000000,511.000000) scale(0.100000,-0.100000)"><path d="M846.3,4998.4c-250.6-63.2-440.1-274.3-477.6-534.8c-17.8-120.4,31.6-309.8,110.5-424.3c110.5-161.8,305.9-264.4,501.3-264.4c102.6,0,132.2-31.6,254.6-266.4c138.1-264.5,323.6-501.3,631.5-809.1c288.1-286.2,453.9-414.4,874.2-674.9c268.4-167.7,526.9-398.6,594-528.9c98.7-195.4,75-292.1-118.4-497.3c-203.3-215.1-217.1-292.1-73-432.2l77-77l734.1,734.1l732.1,732.1l-47.4,65.1c-240.8,339.4-976.9,1109.1-1468.3,1537.3c-345.4,300-801.2,665.1-1087.4,868.3c-268.4,191.4-753.9,493.4-866.3,542.7C1120.6,5008.3,945,5022.1,846.3,4998.4z"/><path d="M4242.6,623.2l-884.1-884.1L3542-420.8c1247.2-1093.3,2908.9-2155,4598.2-2940.4l398.6-185.5l31.6-124.3c17.8-67.1,37.5-150,43.4-185.5c15.8-77,51.3-86.8-410.5,122.4C6431.2-2931,4629.4-1794.3,3358.5-677.3l-221,193.4l-165.8-163.8c-90.8-90.8-163.8-171.7-161.8-177.6c11.8-25.7,430.2-384.8,767.7-657.2C5170.2-2761.3,7167.3-3888.1,9180.2-4644c215.1-80.9,406.5-146,426.3-146c31.6,0,33.6,23.7,21.7,321.7c-27.6,684.8-126.3,1140.7-347.3,1604.4c-193.4,406.5-153.9,363.1-2230,2441.2L5124.8,1505.4L4242.6,623.2z"/></g></g>
</svg>