<?xml version="1.0" encoding="UTF-8"?>
<!-- Generator: Adobe Illustrator 19.1.0, SVG Export Plug-In . SVG Version: 6.00 Build 0)  -->
<svg xmlns="http://www.w3.org/2000/svg" xmlns:xlink="http://www.w3.org/1999/xlink" xmlns:dc="http://purl.org/dc/elements/1.1/" xmlns:cc="http://creativecommons.org/ns#" xmlns:rdf="http://www.w3.org/1999/02/22-rdf-syntax-ns#" version="1.1" id="DESIGNS" x="0px" y="0px" width="32px" height="32px" viewBox="0 0 32 32" style="enable-background:new 0 0 32 32;" xml:space="preserve">
<title property="dc:title">to mix</title><desc property="dc:description">An icon for "mix" from the Blueprint series on to [icon]. Downloaded from http://www.toicon.com/icons/blueprint_mix by 127.0.0.1 on 2017-07-10. Licensed CC-BY, see http://toicon.com/license/ for details.</desc>
<path class="blueprint_een" d="M31,17V6c0-2.757-2.243-5-5-5H6C3.243,1,1,3.243,1,6v11h6v4c-1.654,0-3,1.346-3,3v4  c0,1.654,1.346,3,3,3h2c1.654,0,3-1.346,3-3v-4c0-1.654-1.346-3-3-3v-4H31z M6,28v-4c0-0.551,0.449-1,1-1v6C6.449,29,6,28.551,6,28z   M10,24v4c0,0.551-0.449,1-1,1v-6C9.551,23,10,23.449,10,24z M6,3h20c1.654,0,3,1.346,3,3v7H3V6C3,4.346,4.346,3,6,3z M3,14h26v1H3  V14z M15,8h11c1.105,0,2-0.895,2-2s-0.895-2-2-2H15c-1.105,0-2,0.895-2,2S13.895,8,15,8z M15,5h11c0.551,0,1,0.449,1,1s-0.449,1-1,1  H15c-0.551,0-1-0.449-1-1S14.449,5,15,5z M5,12H4v-1h1V12z M7,12H6v-1h1V12z M9,12H8v-1h1V12z" style="fill: #111918;"/>
<metadata><work rdf:about=""><format>image/svg+xml</format><type rdf:resource="http://purl.org/dc/dcmitype/StillImage"/><license rdf:resource="http://creativecommons.org/licenses/by/4.0/"/><attributionname>Shannon E Thomas</attributionname><attributionurl>http://www.toicon.com/icons/blueprint_mix</attributionurl></work></metadata></svg>
